REM DIRINDEX 1\2,1\3,1\4,1\5
REM DIRNAME "folder01","folder02","folder03","folder04","folder05"
TITLE ""
FILE "P1Q_j_1656-1669.mp3" MP3
  TRACK 01 AUDIO
    TITLE "0:"
    INDEX 01 00:00:00
  TRACK 02 AUDIO
    TITLE "3:cjc173_0168"
    INDEX 01 00:00:24
  TRACK 03 AUDIO
    TITLE "0:"
    INDEX 01 00:01:53
  TRACK 04 AUDIO
    TITLE "4:cjc173_0169"
    INDEX 01 00:01:72
  TRACK 05 AUDIO
    TITLE "0:"
    INDEX 01 00:04:63
  TRACK 06 AUDIO
    TITLE "5:cjc173_0170"
    INDEX 01 00:05:10
  TRACK 07 AUDIO
    TITLE "0:"
    INDEX 01 00:11:28
  TRACK 08 AUDIO
    TITLE "3:cjc173_0171"
    INDEX 01 00:11:75
  TRACK 09 AUDIO
    TITLE "0:"
    INDEX 01 00:13:46
  TRACK 10 AUDIO
    TITLE "4:cjc173_0172"
    INDEX 01 00:13:70
  TRACK 11 AUDIO
    TITLE "0:"
    INDEX 01 00:16:49
  TRACK 12 AUDIO
    TITLE "5:cjc173_0173"
    INDEX 01 00:16:68
  TRACK 13 AUDIO
    TITLE "0:"
    INDEX 01 00:22:14
  TRACK 14 AUDIO
    TITLE "3:cjc173_0174"
    INDEX 01 00:22:61
  TRACK 15 AUDIO
    TITLE "0:"
    INDEX 01 00:24:34
  TRACK 16 AUDIO
    TITLE "4:cjc173_0175"
    INDEX 01 00:24:54
  TRACK 17 AUDIO
    TITLE "0:"
    INDEX 01 00:30:54
  TRACK 18 AUDIO
    TITLE "5:cjc173_0176"
    INDEX 01 00:30:74
  TRACK 19 AUDIO
    TITLE "0:"
    INDEX 01 00:36:39
  TRACK 20 AUDIO
    TITLE "3:cjc173_0177"
    INDEX 01 00:37:09
  TRACK 21 AUDIO
    TITLE "0:"
    INDEX 01 00:38:36
  TRACK 22 AUDIO
    TITLE "4:cjc173_0178"
    INDEX 01 00:38:58
  TRACK 23 AUDIO
    TITLE "0:"
    INDEX 01 00:42:75
  TRACK 24 AUDIO
    TITLE "5:cjc173_0179"
    INDEX 01 00:43:20
  TRACK 25 AUDIO
    TITLE "0:"
    INDEX 01 00:47:41
  TRACK 26 AUDIO
    TITLE "3:cjc173_0180"
    INDEX 01 00:48:11
  TRACK 27 AUDIO
    TITLE "0:"
    INDEX 01 00:49:44
  TRACK 28 AUDIO
    TITLE "4:cjc173_0181"
    INDEX 01 00:49:64
  TRACK 29 AUDIO
    TITLE "0:"
    INDEX 01 00:51:61
  TRACK 30 AUDIO
    TITLE "5:cjc173_0182"
    INDEX 01 00:52:05
  TRACK 31 AUDIO
    TITLE "0:"
    INDEX 01 00:56:34
  TRACK 32 AUDIO
    TITLE "3:cjc173_0183"
    INDEX 01 00:57:06
  TRACK 33 AUDIO
    TITLE "0:"
    INDEX 01 00:58:35
  TRACK 34 AUDIO
    TITLE "4:cjc173_0184"
    INDEX 01 00:58:53
  TRACK 35 AUDIO
    TITLE "0:"
    INDEX 01 01:00:54
  TRACK 36 AUDIO
    TITLE "5:cjc173_0185"
    INDEX 01 01:00:73
  TRACK 37 AUDIO
    TITLE "0:"
    INDEX 01 01:06:03
  TRACK 38 AUDIO
    TITLE "3:cjc173_0186"
    INDEX 01 01:06:48
  TRACK 39 AUDIO
    TITLE "0:"
    INDEX 01 01:08:08
  TRACK 40 AUDIO
    TITLE "4:cjc173_0187"
    INDEX 01 01:08:28
  TRACK 41 AUDIO
    TITLE "0:"
    INDEX 01 01:10:48
  TRACK 42 AUDIO
    TITLE "5:cjc173_0188"
    INDEX 01 01:10:66
  TRACK 43 AUDIO
    TITLE "0:"
    INDEX 01 01:14:62
  TRACK 44 AUDIO
    TITLE "3:cjc173_0189"
    INDEX 01 01:15:32
  TRACK 45 AUDIO
    TITLE "0:"
    INDEX 01 01:16:47
  TRACK 46 AUDIO
    TITLE "4:cjc173_0190"
    INDEX 01 01:16:70
  TRACK 47 AUDIO
    TITLE "0:"
    INDEX 01 01:21:42
  TRACK 48 AUDIO
    TITLE "5:cjc173_0191"
    INDEX 01 01:21:60
  TRACK 49 AUDIO
    TITLE "0:"
    INDEX 01 01:25:65
  TRACK 50 AUDIO
    TITLE "3:cjc173_0192"
    INDEX 01 01:26:35
  TRACK 51 AUDIO
    TITLE "0:"
    INDEX 01 01:27:52
  TRACK 52 AUDIO
    TITLE "4:cjc173_0193"
    INDEX 01 01:27:74
  TRACK 53 AUDIO
    TITLE "0:"
    INDEX 01 01:32:36
  TRACK 54 AUDIO
    TITLE "5:cjc173_0194"
    INDEX 01 01:32:56
  TRACK 55 AUDIO
    TITLE "0:"
    INDEX 01 01:37:08
  TRACK 56 AUDIO
    TITLE "3:cjc173_0195"
    INDEX 01 01:37:53
  TRACK 57 AUDIO
    TITLE "0:"
    INDEX 01 01:39:11
  TRACK 58 AUDIO
    TITLE "4:cjc173_0196"
    INDEX 01 01:39:32
  TRACK 59 AUDIO
    TITLE "0:"
    INDEX 01 01:41:70
  TRACK 60 AUDIO
    TITLE "5:cjc173_0197"
    INDEX 01 01:42:15
  TRACK 61 AUDIO
    TITLE "0:"
    INDEX 01 01:46:38
  TRACK 62 AUDIO
    TITLE "3:cjc173_0198"
    INDEX 01 01:47:10
  TRACK 63 AUDIO
    TITLE "0:"
    INDEX 01 01:48:55
  TRACK 64 AUDIO
    TITLE "4:cjc173_0199"
    INDEX 01 01:48:74
  TRACK 65 AUDIO
    TITLE "0:"
    INDEX 01 01:51:08
  TRACK 66 AUDIO
    TITLE "5:cjc173_0200"
    INDEX 01 01:51:27
  TRACK 67 AUDIO
    TITLE "0:"
    INDEX 01 01:54:57
  TRACK 68 AUDIO
    TITLE "3:cjc173_0201"
    INDEX 01 01:55:29
  TRACK 69 AUDIO
    TITLE "0:"
    INDEX 01 01:57:05
  TRACK 70 AUDIO
    TITLE "4:cjc173_0202"
    INDEX 01 01:57:24
  TRACK 71 AUDIO
    TITLE "0:"
    INDEX 01 01:59:07
  TRACK 72 AUDIO
    TITLE "5:cjc173_0203"
    INDEX 01 01:59:25
  TRACK 73 AUDIO
    TITLE "0:"
    INDEX 01 02:03:54
  TRACK 74 AUDIO
    TITLE "3:cjc173_0204"
    INDEX 01 02:04:24
  TRACK 75 AUDIO
    TITLE "0:"
    INDEX 01 02:05:61
  TRACK 76 AUDIO
    TITLE "4:cjc173_0205"
    INDEX 01 02:06:07
  TRACK 77 AUDIO
    TITLE "0:"
    INDEX 01 02:09:06
  TRACK 78 AUDIO
    TITLE "5:cjc173_0206"
    INDEX 01 02:09:25
  TRACK 79 AUDIO
    TITLE "0:"
    INDEX 01 02:13:45
  TRACK 80 AUDIO
    TITLE "3:cjc173_0207"
    INDEX 01 02:14:15
  TRACK 81 AUDIO
    TITLE "0:"
    INDEX 01 02:15:52
  TRACK 82 AUDIO
    TITLE "4:cjc173_0208"
    INDEX 01 02:15:73
  TRACK 83 AUDIO
    TITLE "0:"
    INDEX 01 02:19:71
  TRACK 84 AUDIO
    TITLE "5:cjc173_0209"
    INDEX 01 02:20:15
  TRACK 85 AUDIO
    TITLE "0:"
    INDEX 01 02:23:33
